<?xml version="1.0" encoding="utf-8"?>
<!-- Generator: Adobe Illustrator 19.0.0, SVG Export Plug-In . SVG Version: 6.00 Build 0)  -->
<svg version="1.1" id="Layer_1" xmlns="http://www.w3.org/2000/svg" xmlns:xlink="http://www.w3.org/1999/xlink" x="0px" y="0px"
	 viewBox="-2250.3 2261.2 340.2 340.2" style="enable-background:new -2250.3 2261.2 340.2 340.2;" xml:space="preserve">
<style type="text/css">
	.st0{fill:#424A60;}
	.st1{fill:#FFFFFF;}
	.st2{fill:#262B35;}
	.st3{fill:#3182C4;}
	.st4{fill:#88BF58;}
	.st5{fill:#DA691C;}
	.st6{fill:#EAB917;}
	.st7{fill:#7382BE;}
	.st8{fill:#DC352E;}
	.st9{fill:#A284BB;}
	.st10{fill:#E96248;}
	.st11{fill:#25AE88;}
</style>
<g id="XMLID_102_">
	<path id="XMLID_50_" class="st0" d="M-2006.7,2585.3h-133.8c-10,0-18.1-8.1-18.1-18.1v-271.8c0-10,8.1-18.1,18.1-18.1h133.8
		c10,0,18.1,8.1,18.1,18.1v271.8C-1988.6,2577.2-1996.7,2585.3-2006.7,2585.3z"/>
	<rect id="XMLID_49_" x="-2158.6" y="2309.2" class="st1" width="169.9" height="212.4"/>
	<circle id="XMLID_48_" class="st2" cx="-2073.6" cy="2553.5" r="15.9"/>
	<path id="XMLID_47_" class="st2" d="M-2073.6,2298.6h-21.2c-2.9,0-5.3-2.4-5.3-5.3c0-2.9,2.4-5.3,5.3-5.3h21.2
		c2.9,0,5.3,2.4,5.3,5.3C-2068.3,2296.2-2070.6,2298.6-2073.6,2298.6z"/>
	<path id="XMLID_46_" class="st2" d="M-2052.3,2298.6h-5.3c-2.9,0-5.3-2.4-5.3-5.3c0-2.9,2.4-5.3,5.3-5.3h5.3c2.9,0,5.3,2.4,5.3,5.3
		C-2047,2296.2-2049.4,2298.6-2052.3,2298.6z"/>
	<path id="XMLID_45_" class="st3" d="M-2063.2,2367.7h-20.8c-3,0-5.5-2.5-5.5-5.5v-20.8c0-3,2.5-5.5,5.5-5.5h20.8
		c3,0,5.5,2.5,5.5,5.5v20.8C-2057.7,2365.2-2060.1,2367.7-2063.2,2367.7z"/>
	<path id="XMLID_44_" class="st4" d="M-2111,2367.7h-20.8c-3,0-5.5-2.5-5.5-5.5v-20.8c0-3,2.5-5.5,5.5-5.5h20.8c3,0,5.5,2.5,5.5,5.5
		v20.8C-2105.4,2365.2-2107.9,2367.7-2111,2367.7z"/>
	<path id="XMLID_43_" class="st5" d="M-2015.4,2367.7h-20.8c-3,0-5.5-2.5-5.5-5.5v-20.8c0-3,2.5-5.5,5.5-5.5h20.8
		c3,0,5.5,2.5,5.5,5.5v20.8C-2009.9,2365.2-2012.3,2367.7-2015.4,2367.7z"/>
	<path id="XMLID_42_" class="st6" d="M-2063.2,2415.4h-20.8c-3,0-5.5-2.5-5.5-5.5V2389c0-3,2.5-5.5,5.5-5.5h20.8
		c3,0,5.5,2.5,5.5,5.5v20.8C-2057.7,2412.9-2060.1,2415.4-2063.2,2415.4z"/>
	<path id="XMLID_41_" class="st7" d="M-2111,2415.4h-20.8c-3,0-5.5-2.5-5.5-5.5V2389c0-3,2.5-5.5,5.5-5.5h20.8c3,0,5.5,2.5,5.5,5.5
		v20.8C-2105.4,2412.9-2107.9,2415.4-2111,2415.4z"/>
	<path id="XMLID_40_" class="st8" d="M-2015.4,2415.4h-20.8c-3,0-5.5-2.5-5.5-5.5V2389c0-3,2.5-5.5,5.5-5.5h20.8
		c3,0,5.5,2.5,5.5,5.5v20.8C-2009.9,2412.9-2012.3,2415.4-2015.4,2415.4z"/>
	<path id="XMLID_35_" class="st9" d="M-2063.2,2463.2h-20.8c-3,0-5.5-2.5-5.5-5.5v-20.8c0-3,2.5-5.5,5.5-5.5h20.8
		c3,0,5.5,2.5,5.5,5.5v20.8C-2057.7,2460.7-2060.1,2463.2-2063.2,2463.2z"/>
	<path id="XMLID_34_" class="st10" d="M-2111,2463.2h-20.8c-3,0-5.5-2.5-5.5-5.5v-20.8c0-3,2.5-5.5,5.5-5.5h20.8
		c3,0,5.5,2.5,5.5,5.5v20.8C-2105.4,2460.7-2107.9,2463.2-2111,2463.2z"/>
	<path id="XMLID_84_" class="st11" d="M-2015.4,2463.2h-20.8c-3,0-5.5-2.5-5.5-5.5v-20.8c0-3,2.5-5.5,5.5-5.5h20.8
		c3,0,5.5,2.5,5.5,5.5v20.8C-2009.9,2460.7-2012.3,2463.2-2015.4,2463.2z"/>
</g>
</svg>
