<?xml version="1.0" encoding="utf-8"?>
<!-- Generator: Adobe Illustrator 19.0.0, SVG Export Plug-In . SVG Version: 6.00 Build 0)  -->
<svg version="1.1" id="Layer_1" xmlns="http://www.w3.org/2000/svg" xmlns:xlink="http://www.w3.org/1999/xlink" x="0px" y="0px"
	 viewBox="-4081 3373.4 340.2 340.2" style="enable-background:new -4081 3373.4 340.2 340.2;" xml:space="preserve">
<style type="text/css">
	.st0{fill:#FFFFFF;}
</style>
<g>
	<path class="st0" d="M-4030.4,3649.7h248.4v-201.8h-248.4V3649.7z M-4022.7,3455.6h232.9V3642h-232.9V3455.6z"/>
	<rect x="-3945" y="3576.9" class="st0" width="77.6" height="7.8"/>
	<rect x="-3983.8" y="3600.2" class="st0" width="155.3" height="7.8"/>
	<path class="st0" d="M-3835.7,3509.5c-3.5,0-6.4,2.9-6.4,6.4c0,3.5,2.9,6.4,6.4,6.4c3.5,0,6.4-2.9,6.4-6.4
		C-3829.3,3512.4-3832.2,3509.5-3835.7,3509.5z"/>
	<path class="st0" d="M-3855.9,3494.5h-143.4v46.6h143.4h42.8h0v-46.6h0H-3855.9z M-3855.9,3533.3h-135.7v-31.1h135.7V3533.3
		L-3855.9,3533.3z M-3825,3529.3l-5-5c-1.7,1.2-3.6,2-5.8,2c-5.7,0-10.3-4.6-10.3-10.3s4.6-10.3,10.3-10.3s10.3,4.6,10.3,10.3
		c0,2.1-0.8,3.9-1.9,5.6l5,5L-3825,3529.3z"/>
</g>
</svg>
