<?xml version="1.0" encoding="utf-8"?>
<!-- Generator: Adobe Illustrator 19.0.0, SVG Export Plug-In . SVG Version: 6.00 Build 0)  -->
<svg version="1.1" id="Layer_1" xmlns="http://www.w3.org/2000/svg" xmlns:xlink="http://www.w3.org/1999/xlink" x="0px" y="0px"
	 viewBox="-2250.3 2261.2 340.2 340.2" style="enable-background:new -2250.3 2261.2 340.2 340.2;" xml:space="preserve">
<style type="text/css">
	.st0{fill:#FFFFFF;}
</style>
<path id="XMLID_101_" class="st0" d="M-1960.3,2410.3h-89.2c-3.1,0-5.2-2.1-5.2-5.2v-89.2c0-6.3-4.2-10.5-10.5-10.5h-21
	c-6.3,0-10.5,4.2-10.5,10.5v89.2c0,3.1-2.1,5.2-5.2,5.2h-89.2c-6.3,0-10.5,4.2-10.5,10.5v21c0,6.3,4.2,10.5,10.5,10.5h89.2
	c3.1,0,5.2,2.1,5.2,5.2v89.2c0,6.3,4.2,10.5,10.5,10.5h21c6.3,0,10.5-4.2,10.5-10.5v-89.2c0-3.1,2.1-5.2,5.2-5.2h89.2
	c6.3,0,10.5-4.2,10.5-10.5v-21C-1949.8,2414.5-1954,2410.3-1960.3,2410.3z"/>
</svg>
