<?xml version="1.0" encoding="utf-8"?>
<!-- Generator: Adobe Illustrator 19.0.0, SVG Export Plug-In . SVG Version: 6.00 Build 0)  -->
<svg version="1.1" id="Layer_1" xmlns="http://www.w3.org/2000/svg" xmlns:xlink="http://www.w3.org/1999/xlink" x="0px" y="0px"
	 viewBox="-4081 3373.4 340.2 340.2" style="enable-background:new -4081 3373.4 340.2 340.2;" xml:space="preserve">
<style type="text/css">
	.st0{fill:#FFFFFF;}
</style>
<g id="lightbulb">
	<g>
		<path class="st0" d="M-3850.3,3524.6c0-31-24.6-56.1-56.1-56.1c-30.8,0-56.1,25.1-56.1,56.1c0,1,0,2,0.1,3l-0.1,0
			c0,15.5,12.9,38.5,18.1,47.2c5.2,8.6,9.5,31.2,9.5,31.2h15.7h11.1h1.7h28.9c0,0,3.9-22.6,9.1-31.2c5.2-8.6,18.1-31.6,18.1-47.1
			l-0.1-0.1C-3850.3,3526.7-3850.3,3525.6-3850.3,3524.6z"/>
		<path class="st0" d="M-3850.3,3524.6c0-31-24.6-56.1-56.1-56.1V3606h28.9c0,0,3.9-22.6,9.1-31.2c5.2-8.6,18.1-31.6,18.1-47.1
			l-0.1-0.1C-3850.3,3526.7-3850.3,3525.6-3850.3,3524.6z"/>
		<path class="st0" d="M-3883.1,3555.8h-8.1c-2,0-4.3,1.2-5.3,3l-3.4,5.8l-3.4-7.3c-1.1-2.4-1.3-3.3-3.1-3.3v7.9l3.2,6.9
			c0.6,1.3,1.7,2.1,3,2.2c1.3,0.1,2.5-0.6,3.2-1.9l4.6-7.5c0.2-0.3,0.8-0.3,1.2-0.3h6.5l-5.4,11.3c-0.6,1.4-1.1,3.2-1.1,4.7v28.8
			h4.8v-28.8c0-0.8,0.3-2.4,0.6-3.1l6.1-13.1c0.6-1.3,0.5-2.5-0.2-3.6C-3880.6,3556.4-3881.8,3555.8-3883.1,3555.8z"/>
		<g>
			<path class="st0" d="M-3932.2,3603.6c-4.7,0-8.6,3-8.6,7.7v30.2c0,19,15.7,34.5,34.5,34.5v-72.5H-3932.2z"/>
			<path class="st0" d="M-3880.5,3603.6h-25.9v72.5c19.4,0,34.5-15.5,34.5-34.5v-30.2C-3871.9,3606.6-3875.7,3603.6-3880.5,3603.6z"
				/>
		</g>
		<g>
			<path class="st0" d="M-3906.1,3446.9c-3.6,0-6.3-2.9-6.3-6.5v-19c0-3.6,2.8-6.5,6.3-6.5c3.6,0,6.3,2.9,6.3,6.5v19
				C-3899.7,3444.1-3902.5,3446.9-3906.1,3446.9z"/>
		</g>
		<g>
			<g>
				<path class="st0" d="M-3906.1,3446.9c-3.6,0-6.3-2.9-6.3-6.5v-19c0-3.6,2.8-6.5,6.3-6.5c3.6,0,6.3,2.9,6.3,6.5v19
					C-3899.7,3444.1-3902.5,3446.9-3906.1,3446.9z"/>
			</g>
		</g>
		<g>
			<path class="st0" d="M-3805,3529.8h-19c-3.6,0-6.5-2.8-6.5-6.3c0-3.6,2.9-6.3,6.5-6.3h19c3.6,0,6.5,2.8,6.5,6.3
				C-3798.5,3527-3801.4,3529.8-3805,3529.8z"/>
		</g>
		<g>
			<g>
				<path class="st0" d="M-3805,3529.8h-19c-3.6,0-6.5-2.8-6.5-6.3c0-3.6,2.9-6.3,6.5-6.3h19c3.6,0,6.5,2.8,6.5,6.3
					C-3798.5,3527-3801.4,3529.8-3805,3529.8z"/>
			</g>
		</g>
		<g>
			<g>
				<path class="st0" d="M-3988.8,3529.8h-19c-3.6,0-6.5-2.8-6.5-6.3c0-3.6,2.9-6.3,6.5-6.3h19c3.6,0,6.5,2.8,6.5,6.3
					C-3982.3,3527-3985.2,3529.8-3988.8,3529.8z"/>
			</g>
		</g>
		<g>
			<g>
				<path class="st0" d="M-3964.6,3471.1c-1.7,0-3.3-0.6-4.6-1.9l-13.4-13.4c-2.5-2.5-2.5-6.6,0-9.2c2.5-2.5,6.6-2.5,9.2,0
					l13.4,13.4c2.5,2.5,2.5,6.6,0,9.2C-3961.3,3470.5-3963,3471.1-3964.6,3471.1z"/>
			</g>
		</g>
		<g>
			<path class="st0" d="M-3848.1,3471.1c-1.7,0-3.3-0.6-4.6-1.9c-2.5-2.5-2.5-6.6,0-9.2l13.4-13.4c2.5-2.5,6.6-2.5,9.2,0
				c2.5,2.5,2.5,6.6,0,9.2l-13.4,13.4C-3844.8,3470.5-3846.4,3471.1-3848.1,3471.1z"/>
		</g>
		<g>
			<g>
				<path class="st0" d="M-3848.1,3471.1c-1.7,0-3.3-0.6-4.6-1.9c-2.5-2.5-2.5-6.6,0-9.2l13.4-13.4c2.5-2.5,6.6-2.5,9.2,0
					c2.5,2.5,2.5,6.6,0,9.2l-13.4,13.4C-3844.8,3470.5-3846.4,3471.1-3848.1,3471.1z"/>
			</g>
		</g>
		<g>
			<path class="st0" d="M-3888.8,3608.5c-1.3,0-2.4-1.1-2.4-2.4v-28.9c0-1.5,0.5-3.3,1.1-4.7l5.4-11.3h-6.5c-0.3,0-1,0-1.2,0.3
				l-4.6,7.7c-0.7,1.3-1.9,1.9-3.2,1.8c-1.3-0.1-2.4-0.9-3-2.3l-3.2-6.9l-3.2,6.9c-0.6,1.3-1.7,2.1-3,2.2c-1.3,0.1-2.4-0.6-3.2-1.9
				l-4.6-7.5c-0.2-0.3-0.8-0.3-1.2-0.3h-6.5l5.4,11.3c0.6,1.4,1.1,3.2,1.1,4.7v28.9c0,1.3-0.8,2.4-2.1,2.4c-1.3,0-2.1-1.1-2.1-2.4
				v-28.9c0-0.8-0.6-2.4-1-3.1l-6.2-13.1c-0.6-1.3-0.6-2.5,0.1-3.6c0.7-1.1,1.8-1.6,3.2-1.6h8.1c2,0,4.3,1.2,5.3,3l3.4,5.8l3.3-7.3
				c1.1-2.4,1.5-3.4,3.1-3.4c1.6,0,2,0.9,3.1,3.3l3.4,7.3l3.4-5.8c1-1.8,3.2-3,5.3-3h8.1c1.4,0,2.6,0.5,3.3,1.6
				c0.7,1.1,0.7,2.4,0.1,3.6l-6,13.1c-0.4,0.8-0.6,2.3-0.6,3.1v28.9C-3886.4,3607.5-3887.5,3608.5-3888.8,3608.5z"/>
		</g>
	</g>
</g>
</svg>
