<?xml version="1.0" encoding="utf-8"?>
<!-- Generator: Adobe Illustrator 19.0.0, SVG Export Plug-In . SVG Version: 6.00 Build 0)  -->
<svg version="1.1" id="Layer_1" xmlns="http://www.w3.org/2000/svg" xmlns:xlink="http://www.w3.org/1999/xlink" x="0px" y="0px"
	 viewBox="-2250.3 2261.2 340.2 340.2" style="enable-background:new -2250.3 2261.2 340.2 340.2;" xml:space="preserve">
<style type="text/css">
	.st0{fill:#FFFFFF;}
</style>
<g>
	<path class="st0" d="M-2050.2,2355.8c13.4,8.4,22.8,22.6,24.5,39.2c5.5,2.6,11.5,4,18,4c23.5,0,42.5-19,42.5-42.5
		c0-23.5-19-42.5-42.5-42.5C-2031,2313.9-2049.9,2332.6-2050.2,2355.8z M-2078.1,2442.9c23.5,0,42.5-19,42.5-42.5
		s-19-42.5-42.5-42.5s-42.5,19-42.5,42.5S-2101.6,2442.9-2078.1,2442.9z M-2060,2445.8h-36.1c-30,0-54.5,24.4-54.5,54.5v44.1
		l0.1,0.7l3,1c28.7,9,53.6,11.9,74.1,11.9c40,0,63.2-11.4,64.7-12.1l2.8-1.4h0.3v-44.1C-2005.6,2470.2-2030,2445.8-2060,2445.8z
		 M-1989.7,2401.9h-35.8c-0.4,14.3-6.5,27.2-16.2,36.5c26.7,7.9,46.2,32.7,46.2,61.9v13.6c35.4-1.3,55.7-11.3,57.1-12l2.8-1.4h0.3
		v-44.2C-1935.2,2426.3-1959.6,2401.9-1989.7,2401.9z M-2152.7,2399c8.3,0,16.1-2.4,22.6-6.6c2.1-13.6,9.4-25.5,19.8-33.6
		c0-0.8,0.1-1.6,0.1-2.4c0-23.5-19-42.5-42.5-42.5c-23.5,0-42.5,19-42.5,42.5C-2195.3,2379.9-2176.2,2399-2152.7,2399z
		 M-2114.5,2438.4c-9.6-9.2-15.7-22.1-16.2-36.3c-1.3-0.1-2.6-0.2-4-0.2h-36.1c-30,0-54.5,24.4-54.5,54.5v44.1l0.1,0.7l3,1
		c23,7.2,43.5,10.5,61.3,11.5v-13.3C-2160.8,2471.1-2141.2,2446.3-2114.5,2438.4z"/>
</g>
</svg>
