<?xml version="1.0" encoding="utf-8"?>
<!-- Generator: Adobe Illustrator 19.0.0, SVG Export Plug-In . SVG Version: 6.00 Build 0)  -->
<svg version="1.1" id="Layer_1" xmlns="http://www.w3.org/2000/svg" xmlns:xlink="http://www.w3.org/1999/xlink" x="0px" y="0px"
	 viewBox="-4081 3373.4 340.2 340.2" style="enable-background:new -4081 3373.4 340.2 340.2;" xml:space="preserve">
<style type="text/css">
	.st0{fill:#1E2D34;}
	.st1{fill:#F5F5F5;}
	.st2{fill:#E6E6E6;}
	.st3{fill:#F8AB44;}
	.st4{fill:#263740;}
</style>
<g id="XMLID_29_">
	<path id="XMLID_97_" class="st0" d="M-4067.3,3586.4v-152.6c0-4.3,2.8-7.3,7-7.3h285c4.2,0,7,3,7,7.3v152.6H-4067.3z"/>
	<path id="XMLID_96_" class="st1" d="M-4067.3,3586.4v27.8c0,4.2,2.8,7,7,7h285c4.2,0,7-2.8,7-7v-27.8H-4067.3z"/>
	<rect id="XMLID_95_" x="-4053.4" y="3444" class="st1" width="271.1" height="128.6"/>
	<rect id="XMLID_94_" x="-3956.1" y="3621.2" class="st2" width="76.5" height="31.3"/>
	<path id="XMLID_93_" class="st1" d="M-3855.3,3659.4c0-3.8-3.1-7-7-7h-111.2c-3.8,0-7,3.1-7,7l0,0c0,3.8,3.1,7,7,7h111.2
		C-3858.4,3666.4-3855.3,3663.3-3855.3,3659.4L-3855.3,3659.4z"/>
	<circle id="XMLID_92_" class="st0" cx="-3917.9" cy="3603.8" r="7"/>
	<path id="XMLID_91_" class="st3" d="M-3754.5,3659.4c0,3.5-3.5,7-7,7h-69.5c-3.5,0-7-2.1-7-6.6v-122c0-3.5,3.5-7,7-7h69.5
		c3.5,0,7,3.5,7,7V3659.4z"/>
	<rect id="XMLID_90_" x="-3834.4" y="3544.7" class="st0" width="76.5" height="100.8"/>
	<rect id="XMLID_89_" x="-3831" y="3548.2" class="st1" width="69.5" height="93.8"/>
	<g id="XMLID_86_">
		<circle id="XMLID_88_" class="st4" cx="-3796.2" cy="3534.3" r="1.7"/>
		<path id="XMLID_98_" class="st4" d="M-3787.3,3541.3h-17.8c-0.9,0-1.6-0.9-1.6-1.7s0.7-1.7,1.6-1.7h17.8c0.9,0,1.6,0.9,1.6,1.7
			S-3786.4,3541.3-3787.3,3541.3z"/>
		<path id="XMLID_99_" class="st4" d="M-3796.2,3649c-3.8,0-7,3.1-7,7c0,3.8,3.1,7,7,7s7-3.1,7-7
			C-3789.3,3652.1-3792.4,3649-3796.2,3649z"/>
	</g>
</g>
</svg>
