<?xml version="1.0" encoding="utf-8"?>
<!-- Generator: Adobe Illustrator 19.0.0, SVG Export Plug-In . SVG Version: 6.00 Build 0)  -->
<svg version="1.1" id="Layer_1" xmlns="http://www.w3.org/2000/svg" xmlns:xlink="http://www.w3.org/1999/xlink" x="0px" y="0px"
	 viewBox="-4081 3373.4 340.2 340.2" style="enable-background:new -4081 3373.4 340.2 340.2;" xml:space="preserve">
<style type="text/css">
	.st0{fill:#FFFFFF;}
</style>
<g>
	<path class="st0" d="M-8135.9,7026h288v-234h-288V7026z M-8126.9,6801h270v216h-270V6801z"/>
	<rect x="-8036.9" y="6941.5" class="st0" width="90" height="9"/>
	<rect x="-8081.9" y="6968.5" class="st0" width="180" height="9"/>
	<path class="st0" d="M-7910.2,6863.5c-4.1,0-7.5,3.3-7.5,7.5c0,4.1,3.3,7.5,7.5,7.5c4.1,0,7.5-3.3,7.5-7.5
		S-7906,6863.5-7910.2,6863.5z"/>
	<path class="st0" d="M-7933.6,6846h-166.3v54h166.3h49.7l0,0v-54l0,0H-7933.6z M-7933.6,6891h-157.3v-36h157.3V6891L-7933.6,6891z
		 M-7897.7,6886.3l-5.8-5.8c-1.9,1.3-4.1,2.3-6.7,2.3c-6.6,0-12-5.4-12-12s5.4-12,12-12c6.6,0,12,5.4,12,12c0,2.4-0.9,4.6-2.1,6.4
		l5.8,5.8L-7897.7,6886.3z"/>
</g>
<g>
	<g>
		<path class="st0" d="M-3776.6,3621.1h-100.7c-3.7,0-6.7-3-6.7-6.7s3-6.7,6.7-6.7h100.7c3.7,0,6.7,3,6.7,6.7
			C-3769.9,3618.1-3772.9,3621.1-3776.6,3621.1"/>
		<path class="st0" d="M-3978,3580.9h-67.1c-3.7,0-6.7-3-6.7-6.7c0-3.7,3-6.7,6.7-6.7h67.1c3.7,0,6.7,3,6.7,6.7
			C-3971.3,3577.9-3974.3,3580.9-3978,3580.9"/>
		<path class="st0" d="M-3810.2,3580.9h-100.7c-3.7,0-6.7-3-6.7-6.7c0-3.7,3-6.7,6.7-6.7h100.7c3.7,0,6.7,3,6.7,6.7
			C-3803.5,3577.9-3806.5,3580.9-3810.2,3580.9"/>
		<path class="st0" d="M-3944.5,3580.9c-0.9,0-1.7-0.2-2.6-0.5c-0.9-0.3-1.5-0.8-2.2-1.4c-1.2-1.3-1.9-3-1.9-4.8
			c0-1.8,0.7-3.5,1.9-4.8c0.7-0.6,1.3-1.1,2.2-1.4c2.4-1,5.4-0.5,7.3,1.4c1.2,1.3,1.9,3,1.9,4.8c0,1.7-0.7,3.5-1.9,4.8
			C-3941,3580.1-3942.7,3580.9-3944.5,3580.9"/>
		<path class="st0" d="M-3910.9,3621.1h-100.7c-3.7,0-6.7-3-6.7-6.7s3-6.7,6.7-6.7h100.7c3.7,0,6.7,3,6.7,6.7
			S-3907.2,3621.1-3910.9,3621.1"/>
		<path class="st0" d="M-4045.2,3621.1c-0.9,0-1.7-0.2-2.6-0.5c-0.8-0.3-1.5-0.8-2.2-1.4c-1.2-1.3-1.9-3-1.9-4.8
			c0-0.9,0.2-1.7,0.5-2.6c0.3-0.9,0.8-1.5,1.4-2.2c1.6-1.5,3.9-2.2,6-1.8c0.5,0.1,0.9,0.2,1.3,0.4c0.4,0.1,0.8,0.3,1.1,0.6
			c0.4,0.3,0.7,0.5,1.1,0.8c0.6,0.7,1.1,1.3,1.4,2.2c0.3,0.8,0.5,1.7,0.5,2.6c0,1.8-0.7,3.5-1.9,4.8c-0.3,0.3-0.7,0.5-1.1,0.8
			c-0.3,0.3-0.7,0.5-1.1,0.6c-0.4,0.2-0.8,0.3-1.3,0.4C-4044.3,3621.1-4044.8,3621.1-4045.2,3621.1"/>
		<path class="st0" d="M-3776.6,3580.9c-0.4,0-0.9-0.1-1.3-0.1c-0.5-0.1-0.9-0.2-1.3-0.4c-0.4-0.1-0.8-0.3-1.2-0.6
			c-0.3-0.3-0.7-0.5-1-0.8c-1.2-1.3-1.9-3-1.9-4.8c0-1.7,0.7-3.5,1.9-4.8l1-0.8c0.4-0.3,0.8-0.5,1.2-0.6c0.4-0.2,0.8-0.3,1.3-0.4
			c2.1-0.5,4.5,0.3,6,1.8c0.3,0.3,0.5,0.7,0.8,1.1c0.3,0.3,0.5,0.7,0.6,1.1c0.2,0.4,0.3,0.8,0.4,1.3c0.1,0.4,0.1,0.9,0.1,1.3
			c0,0.4-0.1,0.9-0.1,1.3c-0.1,0.4-0.2,0.8-0.4,1.2c-0.1,0.4-0.3,0.8-0.6,1.2c-0.3,0.3-0.5,0.7-0.8,1c-0.3,0.3-0.7,0.5-1,0.8
			c-0.4,0.3-0.8,0.5-1.2,0.6c-0.4,0.2-0.8,0.3-1.3,0.4C-3775.8,3580.8-3776.2,3580.9-3776.6,3580.9"/>
		<path class="st0" d="M-3776.6,3500.3h-100.7c-3.7,0-6.7-3-6.7-6.7c0-3.7,3-6.7,6.7-6.7h100.7c3.7,0,6.7,3,6.7,6.7
			C-3769.9,3497.3-3772.9,3500.3-3776.6,3500.3"/>
		<path class="st0" d="M-3776.6,3540.6h-67.1c-3.7,0-6.7-3-6.7-6.7c0-3.7,3-6.7,6.7-6.7h67.1c3.7,0,6.7,3,6.7,6.7
			C-3769.9,3537.6-3772.9,3540.6-3776.6,3540.6"/>
		<path class="st0" d="M-3897.5,3540.6h-13.4c-3.7,0-6.7-3-6.7-6.7c0-3.7,3-6.7,6.7-6.7h13.4c3.7,0,6.7,3,6.7,6.7
			C-3890.8,3537.6-3893.8,3540.6-3897.5,3540.6"/>
		<path class="st0" d="M-3810.2,3460h-100.7c-3.7,0-6.7-3-6.7-6.7c0-3.7,3-6.7,6.7-6.7h100.7c3.7,0,6.7,3,6.7,6.7
			C-3803.5,3457-3806.5,3460-3810.2,3460"/>
		<path class="st0" d="M-3776.6,3460c-0.4,0-0.9-0.1-1.3-0.1c-0.5-0.1-0.9-0.2-1.3-0.4c-0.4-0.1-0.8-0.3-1.2-0.6
			c-0.3-0.3-0.7-0.5-1-0.8c-1.2-1.3-1.9-3-1.9-4.8c0-1.7,0.7-3.5,1.9-4.8l1-0.8c0.4-0.3,0.8-0.5,1.2-0.6c0.4-0.2,0.8-0.3,1.3-0.4
			c2.1-0.5,4.5,0.3,6,1.8c0.3,0.3,0.5,0.7,0.8,1.1c0.3,0.3,0.5,0.7,0.6,1.1c0.2,0.4,0.3,0.8,0.4,1.3c0.1,0.4,0.1,0.9,0.1,1.3
			s-0.1,0.9-0.1,1.3c-0.1,0.4-0.2,0.8-0.4,1.2c-0.1,0.4-0.3,0.8-0.6,1.2c-0.3,0.3-0.5,0.7-0.8,1c-0.3,0.3-0.7,0.5-1,0.8
			c-0.4,0.3-0.8,0.5-1.2,0.6c-0.4,0.2-0.8,0.3-1.3,0.4C-3775.8,3460-3776.2,3460-3776.6,3460"/>
		<path class="st0" d="M-3904.2,3500.3c-1.7,0-3.5-0.7-4.8-1.9c-0.6-0.7-1.1-1.4-1.4-2.2c-0.3-0.8-0.5-1.7-0.5-2.6
			c0-0.9,0.2-1.7,0.5-2.6c0.3-0.8,0.8-1.5,1.4-2.2c1.5-1.5,3.9-2.2,6-1.8c0.5,0.1,0.9,0.2,1.3,0.4c0.4,0.1,0.8,0.3,1.1,0.6
			c0.4,0.3,0.7,0.5,1,0.8c0.7,0.7,1.1,1.4,1.5,2.2c0.3,0.8,0.5,1.7,0.5,2.6c0,0.9-0.2,1.7-0.5,2.6c-0.3,0.8-0.8,1.5-1.5,2.2
			c-0.3,0.3-0.6,0.5-1,0.8c-0.3,0.3-0.7,0.5-1.1,0.6c-0.4,0.2-0.8,0.3-1.3,0.4C-3903.3,3500.2-3903.8,3500.3-3904.2,3500.3"/>
		<path class="st0" d="M-3870.6,3540.6c-1.8,0-3.5-0.7-4.8-1.9c-1.2-1.3-1.9-3-1.9-4.8c0-1.7,0.7-3.5,1.9-4.8c2.5-2.5,7-2.5,9.5,0
			c1.2,1.3,1.9,3,1.9,4.8c0,0.5-0.1,0.9-0.1,1.3c-0.1,0.4-0.2,0.8-0.4,1.2c-0.1,0.4-0.3,0.8-0.6,1.2c-0.3,0.3-0.5,0.7-0.8,1
			C-3867.1,3539.8-3868.8,3540.6-3870.6,3540.6"/>
	</g>
	<polygon class="st0" points="-4045.2,3540.6 -3951.2,3540.6 -3951.2,3446.6 -4045.2,3446.6 	"/>
</g>
</svg>
