<?xml version="1.0" encoding="utf-8"?>
<!-- Generator: Adobe Illustrator 19.0.0, SVG Export Plug-In . SVG Version: 6.00 Build 0)  -->
<svg version="1.1" id="Layer_1" xmlns="http://www.w3.org/2000/svg" xmlns:xlink="http://www.w3.org/1999/xlink" x="0px" y="0px"
	 viewBox="-4081 3373.4 340.2 340.2" style="enable-background:new -4081 3373.4 340.2 340.2;" xml:space="preserve">
<style type="text/css">
	.st0{fill:#FFFFFF;}
</style>
<polygon class="st0" points="-4016.9,3539.6 -3976,3479.1 -3971.3,3470.6 -3968.1,3479.8 -3915.4,3604.8 -3821.1,3528.7 
	-3797.1,3544.1 -3797.1,3554.7 -3820.5,3539.8 -3919,3619.3 -3973.2,3491 -4009.4,3544.7 "/>
<polygon class="st0" points="-3975.6,3573.4 -3906.9,3467.6 -3842.8,3611 -3797.1,3602 -3797.1,3611.1 -3848.1,3621.2 
	-3908.4,3486.4 -3969,3579.7 -4010.6,3610 -4015.8,3602.8 "/>
<g>
	<polygon class="st0" points="-4019.2,3657.8 -3797.5,3657.8 -3797.5,3645.8 -4007.2,3645.8 -4007.2,3436.1 -4019.2,3436.1 	"/>
	<polygon class="st0" points="-3801.9,3629.8 -3801.9,3674.1 -3772,3651.9 	"/>
	<polygon class="st0" points="-4035,3442.9 -3990.7,3442.9 -4012.8,3413 	"/>
</g>
</svg>
