<?xml version="1.0" encoding="utf-8"?>
<!-- Generator: Adobe Illustrator 19.0.0, SVG Export Plug-In . SVG Version: 6.00 Build 0)  -->
<svg version="1.1" id="Layer_1" xmlns="http://www.w3.org/2000/svg" xmlns:xlink="http://www.w3.org/1999/xlink" x="0px" y="0px"
	 viewBox="-2250.3 2261.2 340.2 340.2" style="enable-background:new -2250.3 2261.2 340.2 340.2;" xml:space="preserve">
<style type="text/css">
	.st0{fill:#F7AA43;}
	.st1{fill:#F1AF60;}
	.st2{fill:#107885;}
	.st3{fill:#FFFFFF;}
	.st4{fill:#DEE0E1;}
	.st5{fill:#C8C9CB;}
	.st6{fill:#EA5C64;}
	.st7{fill:#F9B32B;}
</style>
<g id="XMLID_168_">
	<path id="XMLID_214_" class="st0" d="M-2239.5,2441.4h318.5v92.3c0,6.2-5,11.2-11.2,11.2h-296c-6.2,0-11.2-5-11.2-11.2V2441.4z"/>
	<path id="XMLID_213_" class="st1" d="M-2239.5,2441.4h318.5l-26.3-47.8h-265.8L-2239.5,2441.4L-2239.5,2441.4z"/>
	<g id="XMLID_210_">
		<path id="XMLID_212_" class="st2" d="M-2189.3,2476.5h218.1c4.4,0,8.1,3.6,8.1,8.1v11.5c0,4.4-3.6,8.1-8.1,8.1h-218.1
			c-4.4,0-8.1-3.6-8.1-8.1v-11.5C-2197.3,2480.1-2193.7,2476.5-2189.3,2476.5z"/>
		<path id="XMLID_211_" class="st2" d="M-2190.3,2405.6h220.2l7,19.9h-234.2L-2190.3,2405.6L-2190.3,2405.6z"/>
	</g>
	<path id="XMLID_209_" class="st3" d="M-2175.8,2300h191.2v125.5h-191.2V2300z"/>
	<path id="XMLID_208_" class="st4" d="M-2185.8,2559.2h211.1v-1.9h-211.1V2559.2z"/>
	<path id="XMLID_207_" class="st3" d="M-2185.8,2557.3h211.1l-10-80.8h-191.2L-2185.8,2557.3z"/>
	<g id="XMLID_171_">
		<path id="XMLID_203_" class="st5" d="M-2156.2,2394.1h149v3.1h-149V2394.1z M-2156.2,2402.8L-2156.2,2402.8h149v3.1h-149V2402.8z
			 M-2156.2,2411.5L-2156.2,2411.5h99.2v3.1h-99.2V2411.5z"/>
		<path id="XMLID_172_" class="st5" d="M-2156.2,2378.5h122.1v3.1h-122.1V2378.5z M-2156.2,2326.3L-2156.2,2326.3h149v3.1h-149
			V2326.3z M-2156.2,2335L-2156.2,2335h149v3.1h-149V2335z M-2156.2,2343.7L-2156.2,2343.7h149v3.1h-149V2343.7z M-2156.2,2352.4
			L-2156.2,2352.4h122.1v3.1h-122.1V2352.4z M-2156.2,2361.1L-2156.2,2361.1h149.4v3.1h-149.4V2361.1z M-2156.2,2369.8
			L-2156.2,2369.8h149.4v3.1h-149.4V2369.8z"/>
	</g>
	<path id="XMLID_170_" class="st6" d="M-1956.2,2453.8c3.6,0,6.4,2.9,6.4,6.4c0,3.6-2.9,6.4-6.4,6.4c-3.6,0-6.4-2.9-6.4-6.4
		C-1962.6,2456.7-1959.8,2453.8-1956.2,2453.8z"/>
	<path id="XMLID_169_" class="st7" d="M-1936.9,2461.1c3.6,0,6.4,2.9,6.4,6.4c0,3.6-2.9,6.4-6.4,6.4c-3.6,0-6.4-2.9-6.4-6.4
		C-1943.3,2464-1940.4,2461.1-1936.9,2461.1z"/>
</g>
</svg>
